<svg id="Layer_1" data-name="Layer 1" xmlns="http://www.w3.org/2000/svg" viewBox="0 0 360 360"><defs><style>.cls-1,.cls-10,.cls-4,.cls-5,.cls-6,.cls-7,.cls-9{fill:none;}.cls-1,.cls-12,.cls-3,.cls-4,.cls-9{stroke:#000;}.cls-1,.cls-3,.cls-4,.cls-5,.cls-6,.cls-7,.cls-8,.cls-9{stroke-miterlimit:10;}.cls-1{stroke-width:1.14px;}.cls-2{fill:red;}.cls-3{fill:#050505;stroke-width:0.31px;}.cls-4,.cls-5{stroke-linecap:round;}.cls-4,.cls-5,.cls-6,.cls-7{stroke-width:1.26px;}.cls-5,.cls-6,.cls-8{stroke:#878686;}.cls-7{stroke:#636363;}.cls-8{fill:#878686;stroke-width:0.47px;}.cls-9{stroke-width:0.63px;}.cls-11{fill:#5e5e5e;}.cls-12{stroke-width:1.02px;}</style></defs><circle class="cls-1" cx="52.92" cy="176.33" r="30.87"/><polygon class="cls-2" points="92.55 203.3 64.5 195.96 64.41 186.94 92.82 189.47 92.55 203.3"/><polygon class="cls-2" points="106.3 174.95 59.31 179.92 59.31 171.87 106.13 162.06 106.3 174.95"/><polygon class="cls-2" points="98.13 150.79 59.31 164.86 59.31 157.75 98.13 135.99 98.13 150.79"/><polygon class="cls-3" points="42.98 167.26 42.68 166.71 97.98 135.71 98.28 136.26 42.98 167.26"/><polygon class="cls-3" points="50.48 168.4 50.26 167.81 98.02 150.49 98.24 151.09 50.48 168.4"/><polyline class="cls-3" points="34.25 177.15 105.85 161.79 105.99 162.41 34.38 177.77"/><rect class="cls-3" x="45.45" y="177.84" width="61.02" height="0.63" transform="translate(-18.37 9.01) rotate(-6.06)"/><polygon class="cls-3" points="92.47 203.6 40.66 190.06 40.82 189.45 92.63 202.99 92.47 203.6"/><polyline class="cls-3" points="33.36 183.85 92.85 189.16 92.8 189.78 33.31 184.48"/><line class="cls-4" x1="64.41" y1="182.63" x2="64.41" y2="203.3"/><line class="cls-5" x1="132.06" y1="184.16" x2="132.06" y2="208.46"/><line class="cls-5" x1="137.51" y1="141.85" x2="137.51" y2="210.42"/><line class="cls-5" x1="106.13" y1="162.07" x2="148.33" y2="175.44"/><line class="cls-5" x1="106.3" y1="174.95" x2="165.93" y2="185.35"/><line class="cls-5" x1="92.82" y1="189.47" x2="142.54" y2="186.05"/><line class="cls-5" x1="92.55" y1="203.3" x2="155.04" y2="189.78"/><rect class="cls-6" x="105.99" y="119.65" width="0.4" height="64.52"/><polyline class="cls-7" points="59.31 127.89 59.31 157.75 59.31 164.86 59.31 210.42"/><polyline class="cls-3" points="92.23 212.79 92.23 119.65 92.86 119.65 92.86 212.79"/><path class="cls-8" d="M161,174.09l-25.09-9.43,5-4.77,0-.07,6,3.32a.42.42,0,0,0,.15,0,.32.32,0,0,0,.28-.17.3.3,0,0,0-.13-.42L98.38,135.77a.32.32,0,0,0-.31.56l3.53,1.93,0,0L98,141.84a.32.32,0,0,0,0,.45.35.35,0,0,0,.23.09.31.31,0,0,0,.22-.09l3.58-3.55a.35.35,0,0,0,.1-.21l4.62,2.53,0,0-8.86,8.3a.31.31,0,0,0,0,.44.29.29,0,0,0,.23.1.29.29,0,0,0,.21-.08l8.86-8.3a.35.35,0,0,0,.1-.2l4.16,2.28h0l-9,8.42-4-1.49a.31.31,0,0,0-.41.18.32.32,0,0,0,.18.41l31.15,11.7h0a.31.31,0,0,0,.22.09h0l31.25,11.74.11,0a.32.32,0,0,0,.29-.21A.31.31,0,0,0,161,174.09Zm-25.75-9.67-5.14-1.94,5.49-5.44a.3.3,0,0,0,.07-.1l4.7,2.57Zm-10.37-3.9,5.91-6.1a.25.25,0,0,0,.07-.12l4.26,2.33-5.66,5.61Zm-5.2-2,6.54-6.65a.21.21,0,0,0,.07-.13l4,2.21-6.09,6.28Zm-5.48-2.06,7.16-7.23a.25.25,0,0,0,.08-.15l4.32,2.37L119,158.32Zm-5.46-2.06,7.63-7.89a.3.3,0,0,0,.08-.17l4.46,2.45-7.36,7.42Zm3.07-10.36a.3.3,0,0,0,.1-.19l4,2.21h0l-7.83,8.09L103,152.3Z"/><polyline class="cls-3" points="97.82 217.68 97.82 125.51 98.45 125.51 98.45 217.68"/><circle class="cls-9" cx="59.38" cy="157.56" r="3.98"/><circle class="cls-9" cx="98.41" cy="136.45" r="3.98"/><circle class="cls-9" cx="137.46" cy="193.14" r="3.98"/><polygon class="cls-10" points="271.67 179.6 271.67 179.61 271.67 179.6 271.67 179.6"/><path d="M281.16,178.4l20-7.45-20,0v-3.4H305v-6.08l-.6-.41H283.54a20.76,20.76,0,0,0-3.23,2.64,18.42,18.42,0,0,0-5.64,13.64h0a18.32,18.32,0,0,0,4.41,12.3l2.08-.81Z"/><path class="cls-11" d="M308.22,164.36v7.92l-19.71,7.35,19.71,0V183H284.71v6.42h24.37a19.36,19.36,0,0,0-.86-25Z"/><path d="M306.08,159.22h-.67l.67.46Z"/><path class="cls-2" d="M319.89,161.08a8.74,8.74,0,0,1-3.53-.72,9.17,9.17,0,0,1-2.88-2,9.28,9.28,0,0,1-2-2.88,9.08,9.08,0,0,1,0-7,9.32,9.32,0,0,1,2-2.89,9.17,9.17,0,0,1,2.88-1.95,9,9,0,0,1,7.05,0,9.1,9.1,0,0,1,2.89,1.95,9.32,9.32,0,0,1,1.95,2.89,9.08,9.08,0,0,1,0,7,9.28,9.28,0,0,1-1.95,2.88,9.1,9.1,0,0,1-2.89,2A8.76,8.76,0,0,1,319.89,161.08Zm0-13.61a4.51,4.51,0,0,0-1.79.36,4.58,4.58,0,0,0-1.45,1,4.65,4.65,0,0,0-1,1.44,4.36,4.36,0,0,0-.36,1.76,4.51,4.51,0,0,0,.36,1.79,4.54,4.54,0,0,0,2.43,2.42,4.35,4.35,0,0,0,1.79.37,4.21,4.21,0,0,0,1.76-.37,4.62,4.62,0,0,0,1.44-1,4.56,4.56,0,0,0,1-1.45,4.35,4.35,0,0,0,.37-1.79,4.21,4.21,0,0,0-.37-1.76,4.6,4.6,0,0,0-2.41-2.42A4.36,4.36,0,0,0,319.89,147.47Z"/><path d="M209.12,169.08A17.05,17.05,0,0,0,192.05,152H157.44v13.1h34.61a4,4,0,0,1,4,4,3.69,3.69,0,0,1-1.16,2.82,3.74,3.74,0,0,1-2.81,1.16h-3v13.1h3a4,4,0,0,1,0,8H157.44V207.2h34.61a17.1,17.1,0,0,0,13.47-27.59A16.49,16.49,0,0,0,209.12,169.08Z"/><rect x="158.71" y="173.06" width="23.62" height="13.1"/><path d="M327.56,159.84a11.37,11.37,0,0,1-3.5,2.34,10.82,10.82,0,0,1-4.37.9,11,11,0,0,1-4.39-.9,11.41,11.41,0,0,1-3.55-2.4,11.74,11.74,0,0,1-2.41-3.55,11.25,11.25,0,0,1,0-8.77,11.36,11.36,0,0,1,2.41-3.57l.07-.06a38,38,0,0,0-44.52,6.64,36.29,36.29,0,0,0-10.87,23,16.47,16.47,0,0,0-10.87-3.89H228a17.76,17.76,0,0,0-4,.44v-.91a4,4,0,0,1,4-4h27.6V152H228A17.05,17.05,0,0,0,211,169.08v21A17,17,0,0,0,228,207.2h17.54a16.55,16.55,0,0,0,12.08-5,16.84,16.84,0,0,0,3.84-5.79,39,39,0,0,0,5.82,7.37,37.78,37.78,0,0,0,60.26-43.95Zm-78,30.29a4,4,0,0,1-4,4H228a4,4,0,0,1-4-4v-3.51a4,4,0,0,1,4-4h17.54a4,4,0,0,1,4,4Zm61.06.2c-.5.61-1,1.21-1.63,1.8a21.22,21.22,0,0,1-30,0c-.48-.48-.93-1-1.36-1.48a20.08,20.08,0,0,1-4.85-13.52h0a20.23,20.23,0,0,1,6.21-15,21.76,21.76,0,0,1,3.55-2.91,21.51,21.51,0,0,1,22.9,0h.67v.46a21.76,21.76,0,0,1,2.88,2.45c.23.23.45.46.67.7a21.27,21.27,0,0,1,1,27.5Z"/><path class="cls-12" d="M28.49,232.52V234h-3.3v6.22h-1.6V225.83h5.7v1.46h-4.1v5.23Z"/><path class="cls-12" d="M45.51,225.83v14.36h-1.6V225.83Z"/><path class="cls-12" d="M66.8,240.19H60.28v-1.44l4.92-11.46H60.5v-1.46h6.34v1.44L61.9,238.73h4.9Z"/><path class="cls-12" d="M87.92,240.19H81.4v-1.44l4.92-11.46h-4.7v-1.46H88v1.44L83,238.73h4.9Z"/><path class="cls-12" d="M107.85,232.19v1.44h-3.51v5.1h4.31v1.46h-5.91V225.83h5.91v1.46h-4.31v4.9Z"/><path class="cls-12" d="M123.47,240.19V225.83h1.6v12.9h4.1v1.46Z"/><path class="cls-12" d="M165.16,232.52V234h-3.3v6.22h-1.6V225.83H166v1.46h-4.1v5.23Z"/><path class="cls-12" d="M182.1,236.81c0,1.29.51,2.07,1.68,2.07s1.66-.78,1.66-2.07v-11h1.5v10.89c0,2.18-1,3.63-3.22,3.63s-3.2-1.45-3.2-3.63V225.83h1.58Z"/><path class="cls-12" d="M205.06,225.83c2.26,0,3.2,1.15,3.2,3.28v1.17c0,1.58-.55,2.57-1.78,3,1.31.39,1.8,1.45,1.8,3v2.24a3.55,3.55,0,0,0,.29,1.72H207a3.81,3.81,0,0,1-.27-1.74v-2.26c0-1.62-.75-2.13-2.09-2.13h-1.13v6.13h-1.6V225.83Zm-.41,6.77c1.28,0,2-.41,2-2v-1.37c0-1.3-.47-2-1.66-2h-1.56v5.31Z"/><path class="cls-12" d="M224.71,240.19h-1.44V225.83h2l3.32,10.38V225.83H230v14.36h-1.66l-3.67-11.61Z"/><path class="cls-12" d="M246.63,225.83v14.36H245V225.83Z"/><path class="cls-12" d="M263.69,240.19v-12.9H261v-1.46h6.87v1.46h-2.64v12.9Z"/><path class="cls-12" d="M283.86,236.81c0,1.29.52,2.07,1.69,2.07s1.66-.78,1.66-2.07v-11h1.49v10.89c0,2.18-1,3.63-3.22,3.63s-3.2-1.45-3.2-3.63V225.83h1.58Z"/><path class="cls-12" d="M306.83,225.83c2.26,0,3.2,1.15,3.2,3.28v1.17c0,1.58-.55,2.57-1.78,3,1.31.39,1.8,1.45,1.8,3v2.24a3.55,3.55,0,0,0,.29,1.72h-1.62a3.67,3.67,0,0,1-.27-1.74v-2.26c0-1.62-.76-2.13-2.09-2.13h-1.13v6.13h-1.6V225.83Zm-.41,6.77c1.27,0,2-.41,2-2v-1.37c0-1.3-.47-2-1.66-2h-1.56v5.31Z"/><path class="cls-12" d="M330.17,232.19v1.44h-3.51v5.1H331v1.46h-5.9V225.83H331v1.46h-4.3v4.9Z"/><line class="cls-1" x1="19.55" y1="220.43" x2="340.45" y2="220.43"/></svg>