<svg id="Layer_1" data-name="Layer 1" xmlns="http://www.w3.org/2000/svg" viewBox="0 0 360 360"><defs><style>.cls-1,.cls-10,.cls-4,.cls-5,.cls-6,.cls-7,.cls-9{fill:none;}.cls-1,.cls-12,.cls-3,.cls-4,.cls-9{stroke:#000;}.cls-1,.cls-3,.cls-4,.cls-5,.cls-6,.cls-7,.cls-8,.cls-9{stroke-miterlimit:10;}.cls-1{stroke-width:1.67px;}.cls-2{fill:red;}.cls-3{fill:#050505;stroke-width:0.46px;}.cls-4,.cls-5{stroke-linecap:round;}.cls-4,.cls-5,.cls-6,.cls-7{stroke-width:1.84px;}.cls-5,.cls-6,.cls-8{stroke:#878686;}.cls-7{stroke:#636363;}.cls-8{fill:#878686;stroke-width:0.69px;}.cls-9{stroke-width:0.92px;}.cls-11{fill:#5e5e5e;}.cls-12{stroke-width:0.92px;}</style></defs><circle class="cls-1" cx="109.13" cy="129.48" r="44.99"/><polygon class="cls-2" points="166.88 168.78 126.02 158.09 125.88 144.94 167.29 148.63 166.88 168.78"/><polygon class="cls-2" points="186.93 127.46 118.44 134.71 118.44 122.98 186.67 108.69 186.93 127.46"/><polygon class="cls-2" points="175.02 92.25 118.44 112.77 118.44 102.4 175.02 70.68 175.02 92.25"/><polygon class="cls-3" points="94.65 116.26 94.2 115.46 174.8 70.28 175.25 71.08 94.65 116.26"/><polygon class="cls-3" points="105.58 117.92 105.26 117.06 174.87 91.82 175.18 92.69 105.58 117.92"/><polyline class="cls-3" points="81.92 130.68 186.28 108.29 186.47 109.19 82.11 131.57"/><rect class="cls-3" x="98.25" y="131.68" width="88.93" height="0.92" transform="translate(-13.14 15.79) rotate(-6.06)"/><polygon class="cls-3" points="166.76 169.22 91.26 149.48 91.49 148.59 167 168.33 166.76 169.22"/><polyline class="cls-3" points="80.63 140.44 167.33 148.17 167.25 149.09 80.55 141.35"/><line class="cls-4" x1="125.88" y1="138.66" x2="125.88" y2="168.78"/><line class="cls-5" x1="224.48" y1="140.89" x2="224.48" y2="176.31"/><line class="cls-5" x1="232.41" y1="79.23" x2="232.41" y2="179.16"/><line class="cls-5" x1="186.67" y1="108.69" x2="248.19" y2="128.18"/><line class="cls-5" x1="186.93" y1="127.46" x2="273.83" y2="142.62"/><line class="cls-5" x1="167.29" y1="148.63" x2="239.74" y2="143.64"/><line class="cls-5" x1="166.88" y1="168.78" x2="257.96" y2="149.09"/><rect class="cls-6" x="186.47" y="46.87" width="0.59" height="94.03"/><polyline class="cls-7" points="118.44 58.88 118.44 102.4 118.44 112.77 118.44 179.16"/><polyline class="cls-3" points="166.42 182.62 166.42 46.87 167.34 46.87 167.34 182.62"/><path class="cls-8" d="M266.6,126.21,230,112.47l7.25-7a.61.61,0,0,0,.07-.1l8.81,4.83a.45.45,0,0,0,.62-.18.45.45,0,0,0-.18-.62L175.38,70.37a.46.46,0,0,0-.62.18.47.47,0,0,0,.18.63L180.08,74,180,74l-5.23,5.18a.46.46,0,0,0,.33.78.45.45,0,0,0,.32-.13l5.22-5.17a.49.49,0,0,0,.14-.32l6.73,3.7s0,0,0,0L174.57,90.2a.46.46,0,0,0,.63.67l12.91-12.09a.52.52,0,0,0,.14-.3l6.06,3.32s0,0,0,0L181.11,94.09l-5.79-2.17a.46.46,0,0,0-.32.86l45.39,17h0a.47.47,0,0,0,.32.14h0l45.54,17.11a.41.41,0,0,0,.16,0,.46.46,0,0,0,.16-.89Zm-37.52-14.09-7.5-2.82,8-7.93a.54.54,0,0,0,.1-.16l6.85,3.76ZM214,106.43l8.62-8.89a.42.42,0,0,0,.1-.17l6.21,3.4-8.25,8.17Zm-7.58-2.84,9.53-9.68a.44.44,0,0,0,.11-.2l5.87,3.22L213,106.08Zm-8-3,10.45-10.54a.46.46,0,0,0,.11-.22l6.29,3.45-9.8,10Zm-8-3,11.14-11.52a.49.49,0,0,0,.11-.23l6.5,3.56-10.73,10.82Zm4.49-15.11a.45.45,0,0,0,.13-.28l5.88,3.22s0,0,0,0L189.5,97.24l-7.43-2.79Z"/><polyline class="cls-3" points="174.56 189.74 174.56 55.42 175.48 55.42 175.48 189.74"/><circle class="cls-9" cx="118.54" cy="102.12" r="5.8"/><circle class="cls-9" cx="175.42" cy="71.35" r="5.8"/><circle class="cls-9" cx="232.34" cy="153.98" r="5.8"/><polygon class="cls-10" points="211.52 227.41 211.52 227.42 211.52 227.41 211.52 227.41"/><path d="M224.86,225.73l28.06-10.47-28.06,0v-4.78h33.47V202l-.85-.58H228.21a27.93,27.93,0,0,0-4.54,3.72,25.85,25.85,0,0,0-7.93,19.16v0a25.66,25.66,0,0,0,6.2,17.27l2.92-1.14Z"/><path class="cls-11" d="M262.87,206v11.13l-27.68,10.32,27.68,0v4.72h-33v9h34.24A27.17,27.17,0,0,0,262.87,206Z"/><path d="M259.87,198.77h-.93l.93.65Z"/><path class="cls-2" d="M279.28,201.39a12.29,12.29,0,0,1-5-1,13,13,0,0,1-6.79-6.78,12.75,12.75,0,0,1,0-9.9,13,13,0,0,1,6.79-6.8,12.63,12.63,0,0,1,9.9,0,12.85,12.85,0,0,1,6.8,6.8,12.75,12.75,0,0,1,0,9.9,12.91,12.91,0,0,1-6.8,6.78A12.33,12.33,0,0,1,279.28,201.39Zm0-19.12a6.46,6.46,0,0,0-4.56,1.88,6.62,6.62,0,0,0-1.37,2,6.1,6.1,0,0,0-.51,2.47,6.31,6.31,0,0,0,.51,2.52,6.71,6.71,0,0,0,1.37,2,6.48,6.48,0,0,0,2,1.37,6.27,6.27,0,0,0,2.52.51,6.1,6.1,0,0,0,2.47-.51,6.62,6.62,0,0,0,2-1.37,6.71,6.71,0,0,0,1.37-2,6.31,6.31,0,0,0,.51-2.52,6.1,6.1,0,0,0-.51-2.47,6.62,6.62,0,0,0-1.37-2,6.45,6.45,0,0,0-2-1.37A6.1,6.1,0,0,0,279.28,182.27Z"/><path d="M123.65,212.64a24,24,0,0,0-24-24H51v18.4H99.66a5.57,5.57,0,0,1,5.58,5.59,5.2,5.2,0,0,1-1.63,4,5.28,5.28,0,0,1-4,1.63H95.39v18.4h4.27a5.59,5.59,0,1,1,0,11.17H51v18.4H99.66a24,24,0,0,0,18.92-38.77A23.07,23.07,0,0,0,123.65,212.64Z"/><rect x="52.82" y="218.22" width="33.19" height="18.4"/><path d="M290.06,199.65a16.08,16.08,0,0,1-4.92,3.29,15.8,15.8,0,0,1-12.32,0,16.14,16.14,0,0,1-5-3.38,15.9,15.9,0,0,1-3.38-5,15.27,15.27,0,0,1-1.26-6.17,15.48,15.48,0,0,1,1.25-6.15,16,16,0,0,1,3.39-5l.09-.09a53.4,53.4,0,0,0-62.54,9.33,51,51,0,0,0-15.27,32.28,23.13,23.13,0,0,0-15.28-5.47H150.2a25.45,25.45,0,0,0-5.58.61v-1.26a5.57,5.57,0,0,1,5.58-5.59H189v-18.4H150.2a24,24,0,0,0-24,24v29.57a24,24,0,0,0,24,24h24.64a23.25,23.25,0,0,0,17-7,23.7,23.7,0,0,0,5.4-8.13,54.65,54.65,0,0,0,8.18,10.35,53,53,0,0,0,74.91,0,51.25,51.25,0,0,0,15.5-37.46A51.89,51.89,0,0,0,290.06,199.65ZM180.43,242.21a5.58,5.58,0,0,1-5.59,5.58H150.2a5.57,5.57,0,0,1-5.58-5.58v-4.93a5.57,5.57,0,0,1,5.58-5.58h24.64a5.58,5.58,0,0,1,5.59,5.58Zm85.78.27c-.71.87-1.47,1.71-2.29,2.54a29.83,29.83,0,0,1-42.15,0c-.68-.68-1.31-1.37-1.91-2.08A28.29,28.29,0,0,1,213,224h0a28.51,28.51,0,0,1,8.73-21.07,32,32,0,0,1,5-4.09,30.29,30.29,0,0,1,32.19,0h.93v.65a32.13,32.13,0,0,1,4.05,3.44c.33.33.64.66.94,1a29.88,29.88,0,0,1,1.35,38.63Z"/><path class="cls-12" d="M34.34,301.71v2.13H29.53v9.05H27.2V292h8.31v2.12h-6v7.62Z"/><path class="cls-12" d="M48.65,292v20.92H46.32V292Z"/><path class="cls-12" d="M69.19,312.89H59.68V310.8l7.17-16.71H60V292h9.24v2.09L62,310.77h7.15Z"/><path class="cls-12" d="M89.48,312.89H80V310.8l7.18-16.71H80.3V292h9.24v2.09l-7.21,16.71h7.15Z"/><path class="cls-12" d="M108,301.24v2.09h-5.12v7.44h6.28v2.12h-8.61V292h8.61v2.12h-6.28v7.15Z"/><path class="cls-12" d="M120.32,312.89V292h2.33v18.8h6v2.12Z"/><path class="cls-12" d="M160.09,301.71v2.13h-4.81v9.05H153V292h8.31v2.12h-6v7.62Z"/><path class="cls-12" d="M174.29,308c0,1.88.74,3,2.45,3s2.42-1.14,2.42-3V292h2.18v15.87c0,3.17-1.46,5.29-4.69,5.29S172,311,172,307.84V292h2.3Z"/><path class="cls-12" d="M197.27,292c3.29,0,4.66,1.67,4.66,4.78v1.7c0,2.31-.81,3.74-2.6,4.31,1.91.57,2.63,2.12,2.63,4.36v3.26a5.2,5.2,0,0,0,.42,2.51H200a5.45,5.45,0,0,1-.39-2.54v-3.29c0-2.36-1.11-3.11-3-3.11h-1.64v8.94H192.6V292Zm-.6,9.86c1.85,0,3-.59,3-2.87v-2c0-1.88-.69-2.87-2.42-2.87h-2.27v7.74Z"/><path class="cls-12" d="M215.41,312.89h-2.09V292h3l4.85,15.12V292h2.06v20.92h-2.42L215.41,296Z"/><path class="cls-12" d="M236.86,292v20.92h-2.33V292Z"/><path class="cls-12" d="M251.24,312.89v-18.8h-3.86V292h10v2.12h-3.86v18.8Z"/><path class="cls-12" d="M270.15,308c0,1.88.75,3,2.46,3s2.42-1.14,2.42-3V292h2.18v15.87c0,3.17-1.47,5.29-4.69,5.29s-4.67-2.12-4.67-5.29V292h2.3Z"/><path class="cls-12" d="M293.14,292c3.28,0,4.66,1.67,4.66,4.78v1.7c0,2.31-.81,3.74-2.6,4.31,1.91.57,2.63,2.12,2.63,4.36v3.26a5.2,5.2,0,0,0,.42,2.51h-2.36a5.45,5.45,0,0,1-.39-2.54v-3.29c0-2.36-1.11-3.11-3.05-3.11H290.8v8.94h-2.33V292Zm-.6,9.86c1.85,0,3-.59,3-2.87v-2c0-1.88-.69-2.87-2.42-2.87H290.8v7.74Z"/><path class="cls-12" d="M316.66,301.24v2.09h-5.11v7.44h6.27v2.12h-8.61V292h8.61v2.12h-6.27v7.15Z"/><line class="cls-1" x1="26.45" y1="284.78" x2="333.55" y2="284.78"/></svg>