<svg id="Layer_1" data-name="Layer 1" xmlns="http://www.w3.org/2000/svg" viewBox="0 0 360 360"><defs><style>.cls-1{fill:none;}.cls-2{fill:#5e5e5e;}.cls-3{fill:red;}.cls-4{fill:#fff;stroke:#fff;stroke-width:1.02px;}</style></defs><polygon class="cls-1" points="222.5 183.88 222.5 183.88 222.5 183.87 222.5 183.88"/><path d="M237.38,182l31.29-11.67-31.29,0V165h37.33V155.5c-.31-.23-.63-.44-.95-.65H241.11a32.32,32.32,0,0,0-5.06,4.14,29,29,0,0,0-8.85,21.38v0a28.67,28.67,0,0,0,6.92,19.27l3.26-1.28Z"/><path class="cls-2" d="M279.78,160V172.4L248.9,183.92l30.88,0v5.25H242.94v10.05h38.2a30.32,30.32,0,0,0-1.36-39.2Z"/><path d="M276.43,151.93h-1.05q.53.34,1.05.72Z"/><path class="cls-3" d="M298.07,154.85a13.75,13.75,0,0,1-5.52-1.12,14.46,14.46,0,0,1-7.58-7.57,14.28,14.28,0,0,1,0-11,14.4,14.4,0,0,1,7.58-7.59,14.14,14.14,0,0,1,11,0,14.38,14.38,0,0,1,7.59,7.59,14.16,14.16,0,0,1,0,11,14.43,14.43,0,0,1-7.59,7.57A13.88,13.88,0,0,1,298.07,154.85Zm0-21.33a7,7,0,0,0-2.81.57,7.19,7.19,0,0,0-3.8,3.79,6.74,6.74,0,0,0-.57,2.75,7,7,0,0,0,.57,2.81,7.21,7.21,0,0,0,1.53,2.27,7.32,7.32,0,0,0,2.27,1.53,7,7,0,0,0,2.81.57,6.82,6.82,0,0,0,2.76-.57,7.35,7.35,0,0,0,2.25-1.53,7.21,7.21,0,0,0,1.53-2.27,7,7,0,0,0,.57-2.81,6.74,6.74,0,0,0-.57-2.75,7.24,7.24,0,0,0-3.78-3.79A6.82,6.82,0,0,0,298.07,133.52Z"/><path d="M124.49,167.39a26.73,26.73,0,0,0-26.75-26.75H43.5v20.53H97.74a6.23,6.23,0,1,1,0,12.45H93v20.53h4.77a6.23,6.23,0,1,1,0,12.45H43.5v20.53H97.74a26.79,26.79,0,0,0,21.1-43.25A25.76,25.76,0,0,0,124.49,167.39Z"/><rect x="45.49" y="173.62" width="37.02" height="20.53"/><path d="M310.09,152.91a17.75,17.75,0,0,1-5.48,3.67,17.56,17.56,0,0,1-13.74,0,17.8,17.8,0,0,1-9.33-9.34,17.53,17.53,0,0,1,0-13.73,17.55,17.55,0,0,1,3.77-5.59l.11-.11a59.62,59.62,0,0,0-69.76,10.41,56.84,56.84,0,0,0-17,36,25.82,25.82,0,0,0-17-6.1H154.11a27.6,27.6,0,0,0-6.23.69v-1.42a5.87,5.87,0,0,1,1.82-4.4,5.81,5.81,0,0,1,4.41-1.82h43.24V140.64H154.11a26.73,26.73,0,0,0-26.76,26.75v33a26.73,26.73,0,0,0,26.76,26.75h27.48a25.94,25.94,0,0,0,18.93-7.83,26.45,26.45,0,0,0,6-9.07,60.93,60.93,0,0,0,9.12,11.55,59.14,59.14,0,0,0,83.55,0,59.61,59.61,0,0,0,10.88-68.87ZM187.82,200.38a6.21,6.21,0,0,1-6.23,6.22H154.11a6.21,6.21,0,0,1-6.23-6.22v-5.5a6.21,6.21,0,0,1,6.23-6.23h27.48a6.21,6.21,0,0,1,6.23,6.23Zm95.67.3a35.21,35.21,0,0,1-2.55,2.83,33.26,33.26,0,0,1-47,0c-.76-.76-1.46-1.53-2.13-2.32A31.52,31.52,0,0,1,224.2,180h0a31.73,31.73,0,0,1,9.73-23.5,35.6,35.6,0,0,1,5.56-4.56,33.73,33.73,0,0,1,35.89,0h1.05v.72a35.6,35.6,0,0,1,4.51,3.84c.37.36.71.73,1.06,1.1a33.33,33.33,0,0,1,1.49,43.09Z"/><path class="cls-4" d="M237.11,224.15l.42-.83,1.89,1,1.8-3.56.91.47L238,229.4l-3.26-1.65.42-.83,2.35,1.18,1.51-3Z"/><path class="cls-4" d="M229,224l5.37-7.49.83.6-5.37,7.48Z"/><path class="cls-4" d="M227.87,210.8l3,3-.65.65-7.43,3,2.13,2.13-.65.66-2.88-2.87.65-.65,7.43-3-2.22-2.22Z"/><path class="cls-4" d="M222.77,204l2.35,3.46-.77.52-7.86,1.51,1.69,2.5-.77.52-2.28-3.36.76-.52,7.87-1.5L222,204.55Z"/><path class="cls-4" d="M214.65,199.12l.85-.36.89,2.07,3-1.29L218.31,197l.86-.37,1.49,3.49-8.47,3.62-1.49-3.48.86-.37,1.09,2.54,2.89-1.24Z"/><path class="cls-4" d="M217.83,192.37l-9,2-.22-1,8.08-1.79-.57-2.57.91-.2Z"/><path class="cls-4" d="M211.81,175.28l.92.08-.18,2.11,4,.35-.1,1-9.16-.81.32-3.65.93.09-.23,2.62,3.34.3Z"/><path class="cls-4" d="M215.72,169.42c.79.23,1.37.05,1.57-.67s-.18-1.16-1-1.39l-6.77-1.94.26-.92,6.72,1.92c1.34.38,2.06,1.26,1.67,2.63s-1.46,1.71-2.8,1.33l-6.72-1.92.28-1Z"/><path class="cls-4" d="M213.08,156.78a1.83,1.83,0,0,1,2.82-.86l.66.34a1.72,1.72,0,0,1,1.16,1.89A1.72,1.72,0,0,1,220,158l1.28.66a2.35,2.35,0,0,0,1.07.34l-.48.93a2.42,2.42,0,0,1-1.07-.37l-1.29-.66a1.16,1.16,0,0,0-1.83.57l-.33.64,3.49,1.8-.47.92-8.19-4.23Zm3.74,2.22a1.09,1.09,0,0,0-.52-1.74l-.79-.4c-.73-.38-1.26-.31-1.61.37l-.46.89,3,1.56Z"/><path class="cls-4" d="M225.25,154.65l-.58.71-7.19-5.75.81-1,6.53,2.5-5.2-4.17.57-.7,7.2,5.75-.67.83L219.43,150Z"/><path class="cls-4" d="M225.25,141.16l6.17,6.86-.77.69-6.16-6.86Z"/><path class="cls-4" d="M236.13,144.42l-4.49-6.95-1.42.92-.51-.79,3.7-2.39.51.79-1.43.92,4.49,7Z"/><path class="cls-4" d="M242.25,138.66c.3.77.79,1.11,1.49.84s.8-.87.5-1.63l-2.62-6.54.89-.35,2.6,6.48c.52,1.3.26,2.4-1.05,2.93s-2.26-.1-2.77-1.4l-2.6-6.48.94-.38Z"/><path class="cls-4" d="M250.59,128.84a1.81,1.81,0,0,1,2.4,1.69l.14.74a1.71,1.71,0,0,1-.78,2.07c.88.09,1.31.71,1.5,1.68l.26,1.41a2.32,2.32,0,0,0,.38,1l-1,.19a2.45,2.45,0,0,1-.37-1.07l-.27-1.42c-.19-1-.73-1.26-1.57-1.1l-.71.13.72,3.87-1,.19-1.69-9.06Zm.54,4.31c.8-.14,1.23-.49,1.05-1.48l-.17-.86c-.15-.82-.53-1.19-1.28-1.05l-1,.18.63,3.35Z"/><path class="cls-4" d="M262.2,132v.92l-2.25,0,0,3.28,2.77,0v.94l-3.79,0,.07-9.22,3.79,0v.93l-2.76,0,0,3.15Z"/></svg>